# xmcd
#
# Track frame offsets: 
#        150
#        20188
#        36354
#        53043
#        65089
#        83432
#        97441
#        109174
#        122742
#        140912
#        154161
#        169341
#        184079
#        197455
#        213098
#        230703
#        247420
#        267754
#        282772
#        298489
#
# Disc length: 4208 seconds
#
# Revision: 2
# Processed by: cddbd v1.5.2PL0 Copyright (c) Steve Scherf et al.
# Submitted via: ExactAudioCopy v1.1
#
DISCID=41106e14
DTITLE=Xin yao - Jing dian disc 1
DYEAR=2005
DGENRE=Country
TTITLE0=gu ren de jiu shang
TTITLE1=sha mo zhu ji
TTITLE2=xie hou
TTITLE3=ru he dui ni suo
TTITLE4=chun bian de xiao yi
TTITLE5=meng hu
TTITLE6=xi
TTITLE7=chen the zhu chong
TTITLE8=ying
TTITLE9=yi shou ge
TTITLE10=tong tong de gu shi
TTITLE11=shui de hua
TTITLE12=zhui yun
TTITLE13=he ping de hu huan
TTITLE14=xie yi shou ge gei ni
TTITLE15=xing kong xia
TTITLE16=bian zi yong heng
TTITLE17=zhou guo nian shao
TTITLE18=yong bao ni
TTITLE19=chuan zhang
EXTD=YEAR: 2005
EXTT0=
EXTT1=
EXTT2=
EXTT3=
EXTT4=
EXTT5=
EXTT6=
EXTT7=
EXTT8=
EXTT9=
EXTT10=
EXTT11=
EXTT12=
EXTT13=
EXTT14=
EXTT15=
EXTT16=
EXTT17=
EXTT18=
EXTT19=
PLAYORDER=
